# xmcd database file
#
# Track frame offsets:
# 150
# 20909
# 33264
# 55727
# 71968
# 91503
# 103494
# 117928
# 140346
# 146739
# 156252
# 174172
# 194931
# 205271
# 225190
# 264637
#
# Disc length: 3808 seconds
#
# Revision: 0
# Processed by: cddbd v1.5.1PL0 Copyright (c) Steve Scherf et al.
# Submitted via: CD-Runner 2004.05
#
DISCID=e90ede10
DTITLE=Shaka Brothers - Blues Blood
DYEAR=2000
DGENRE=Blues
TTITLE0=Peach Tree Blues
TTITLE1=Sugar Mama
TTITLE2=Prowling Groundhog #1
TTITLE3=Got The Blues So Bad
TTITLE4=Cold Chills
TTITLE5=Cow Cow Blues
TTITLE6=Send You Back To Houston
TTITLE7=Drinkin' Woman
TTITLE8=N.O. Streamline
TTITLE9=Crawdad Song
TTITLE10=Bumble Bee
TTITLE11=Prowling Groundhog #2
TTITLE12=John The Revealator
TTITLE13=Found True Love
TTITLE14=Sweet Leg Girl
TTITLE15=Shake 'em On Down
EXTD=
EXTT0=
EXTT1=
EXTT2=
EXTT3=
EXTT4=
EXTT5=
EXTT6=
EXTT7=
EXTT8=
EXTT9=
EXTT10=
EXTT11=
EXTT12=
EXTT13=
EXTT14=
EXTT15=
PLAYORDER=
